<svg width="66" height="69" viewBox="0 0 66 69" fill="none" xmlns="http://www.w3.org/2000/svg">
<g clip-path="url(#clip0_322_2506)">
<path d="M38.6967 12.5889C38.1914 12.8045 37.9567 12.5646 37.7334 12.1145C37.3427 11.3617 37.0106 10.5765 36.4301 9.94141C36.2052 9.69607 36.3432 9.53057 36.505 9.33912C35.9135 9.28371 35.4544 9.65224 34.9534 9.85274C31.8171 11.1659 28.6872 12.5138 25.5573 13.8617C22.8048 15.0392 20.0513 16.1918 17.315 17.3986C16.8248 17.6186 16.3336 17.8137 15.8326 18.0142C15.5918 18.109 15.3511 18.2039 15.1849 18.4105C15.0449 19.0105 15.4633 19.4675 15.6682 19.9534C17.1477 23.3674 19.1523 26.4402 21.7592 29.1035C24.0795 31.4791 26.7194 33.3722 29.9583 34.2967C34.7793 35.685 39.3259 33.5794 41.5069 28.9702C41.5896 28.797 41.6561 28.5946 41.78 28.4496C42.0029 28.0459 41.9497 27.6037 41.9419 27.1746C41.9534 23.2295 41.1475 19.443 39.6685 15.7993C39.5348 15.4653 39.5733 15.189 39.7061 14.8989C38.9298 14.6015 38.7992 13.8579 38.5373 13.1997C38.4424 12.9589 38.6659 12.8099 38.687 12.5943L38.6967 12.5889Z" fill="#FEC96C"/>
<path d="M41.7162 28.3574C41.2556 28.9307 41.0147 29.6248 40.6309 30.2448C38.6902 33.421 34.8054 35.1097 31.1413 34.4075C28.1563 33.827 25.639 32.3633 23.3861 30.4093C21.3613 28.6606 19.6937 26.6125 18.2226 24.3665C17.3002 22.9517 16.5785 21.4386 15.8372 19.9364C15.6085 19.4765 15.4339 18.9994 15.1954 18.5449C15.0515 18.446 14.8966 18.4424 14.7491 18.4985C14.0215 18.7732 13.3003 19.0827 12.5953 19.4215C12.4879 19.4808 12.4064 19.5641 12.4018 19.6941C12.7332 20.8239 13.0646 21.9536 13.4057 23.0779C13.4757 23.3197 13.3086 23.3865 13.173 23.487C13.6921 23.9649 13.7459 24.6617 14.0448 25.2485C14.1366 25.4145 14.16 25.6182 14.2571 25.794C14.8738 27.3014 15.6716 28.7214 16.503 30.11C18.1324 32.8039 20.1049 35.2188 22.5788 37.2036C23.3674 37.8001 24.1181 38.4431 25.01 38.8806C25.1323 38.9404 25.2004 39.0175 25.186 39.1529C25.4353 39.1426 25.6585 39.1084 25.9086 39.2378C28.0267 40.3486 30.2651 40.9849 32.696 40.7245C32.7805 40.716 32.8779 40.7769 32.9689 40.8031C34.3571 40.6857 35.5945 40.1801 36.7414 39.4186C36.9356 39.2857 37.1083 39.1138 37.1835 38.881C39.1145 37.2782 40.2868 35.2024 40.9874 32.8266C41.0355 32.6598 41.1084 32.492 41.1716 32.3296C41.6 31.5829 41.5801 30.7398 41.7411 29.9243C41.7904 29.6676 41.7595 29.4042 41.915 29.1781C41.9519 29.1066 41.9684 29.0211 41.9501 28.9419C41.8476 28.7564 41.8773 28.5105 41.7206 28.3422L41.7162 28.3574Z" fill="#FEB53C"/>
<path d="M53.444 48.8336C53.2722 48.0617 52.8934 47.3534 52.5644 46.643C52.1308 45.6972 51.8978 44.6533 51.2147 43.8327C50.3641 42.8244 49.0341 42.5399 47.8422 43.0586C46.1742 43.7767 44.4847 44.4558 42.8157 45.1491C41.9585 45.1895 41.2445 45.6735 40.4886 45.9894C38.4422 46.853 36.4012 47.7264 34.3547 48.5901C34.0554 48.7173 33.7821 48.8684 33.593 49.1259C31.9489 49.8181 30.3048 50.5103 28.6618 51.2275C28.3331 51.3709 27.9537 51.4915 27.7643 51.8638C27.5542 52.3369 27.6388 52.8127 27.8319 53.2541C28.4002 54.5588 28.8904 55.9067 29.5324 57.1833C30.0763 58.2593 30.767 58.5403 31.8721 58.0951C34.3034 57.1207 36.6905 56.0432 39.1002 55.0297C41.8093 53.8889 44.4967 52.7092 47.196 51.5738C49.1546 50.7587 51.0905 49.8797 53.0545 49.0744C53.202 49.0184 53.3279 48.9233 53.4484 48.8184L53.444 48.8336Z" fill="#804F59"/>
<path d="M29.32 60.373C29.115 60.4864 28.9099 60.5997 28.7049 60.7131C28.6328 61.0206 28.7492 61.3004 28.8656 61.5802C29.1977 62.3654 29.5734 62.5146 30.3586 62.1825C35.6932 59.9345 41.0106 57.6322 46.3344 55.3646C49.5239 54.0093 52.7123 52.629 55.9072 51.2834C56.1968 51.1615 56.5069 51.0538 56.6377 50.7139C56.423 49.7491 55.9732 49.2584 55.3229 49.3502C55.0151 49.3929 54.705 49.5006 54.4468 49.6561C54.0182 49.9185 53.8355 49.7263 53.69 49.3479C53.3047 50.1727 52.4453 50.2782 51.7436 50.5769C46.9154 52.6342 42.098 54.7111 37.2742 56.7532C34.7961 57.8045 32.3288 58.8753 29.8508 59.9266C29.6252 60.0258 29.4094 60.1197 29.32 60.373Z" fill="#7F4F59"/>
<path d="M17.542 39.5293C17.8127 40.6415 17.6382 41.7323 17.4387 42.8241C17.1078 44.6004 16.5093 46.3079 16.2391 48.1017C15.9754 49.8153 16.0836 51.4636 17.0643 52.9609C17.3419 53.3938 17.6673 53.7748 18.0825 54.1571C18.2877 53.4445 18.495 52.7818 18.8397 52.1833C18.9517 51.994 19.0377 51.7807 19.3312 51.8734C19.5275 51.7904 19.4899 51.6072 19.4642 51.4684C19.2551 49.9142 19.6233 48.4359 20.062 46.9697C20.7428 44.7196 20.7833 42.441 20.1151 40.1718C19.7611 38.978 19.1728 37.9139 18.5151 36.8625C17.6577 36.5335 16.8133 36.159 15.8531 36.2437C15.8048 36.5253 16.0061 36.6818 16.1531 36.8555C16.5725 37.3374 16.8747 37.8841 17.1043 38.4838C17.2433 38.8276 17.2847 39.2253 17.5268 39.5249L17.542 39.5293Z" fill="#FE6161"/>
<path d="M37.2813 8.06874C37.4474 7.37779 37.2839 6.80534 36.7258 6.34909C35.8491 6.40036 35.12 6.87993 34.3446 7.20662C31.9739 8.19854 29.6096 9.22514 27.2443 10.2268C24.5114 11.3935 21.7936 12.5646 19.0607 13.7313C17.7896 14.2682 16.5251 14.8398 15.2378 15.3475C14.5796 15.6094 13.9336 15.6861 13.3071 15.2676C13.1892 15.1926 13.0581 15.1631 12.914 15.1791C12.2784 15.505 11.5715 15.679 10.9791 16.083C10.7839 16.6753 11.0749 17.4322 11.6872 17.8713C12.3353 18.3288 13.0427 18.4093 13.7801 18.1292C15.1518 17.613 16.4892 16.9884 17.8339 16.4235C20.518 15.2837 23.1914 14.1245 25.8755 12.9848C28.3048 11.9605 30.7178 10.9069 33.1515 9.86747C34.5353 9.28091 35.9407 8.7334 37.2857 8.05358L37.2813 8.06874Z" fill="#FEB53C"/>
<path d="M29.32 60.3729C30.6452 59.8188 31.9651 59.2548 33.2903 58.7007C34.1341 58.3362 34.9822 57.9565 35.8411 57.5964C37.2 57.0109 38.5599 56.4503 39.909 55.8702C41.1551 55.3342 42.3904 54.7788 43.6463 54.2375C44.8924 53.7016 46.1601 53.2047 47.4018 52.6839C48.251 52.3292 49.0937 51.9398 49.9472 51.5699C50.9233 51.1451 51.9112 50.7646 52.8764 50.3202C53.2832 50.1336 53.8847 50.0688 53.6954 49.3576C53.6134 49.1862 53.5315 49.0148 53.4441 48.8337C53.027 48.7711 52.683 49.025 52.3446 49.1738C50.347 50.0105 48.3818 50.9057 46.3798 51.7575C44.0492 52.7528 41.697 53.709 39.3664 54.7042C37.3742 55.5507 35.3938 56.4415 33.407 57.2977C32.7595 57.5792 32.1067 57.8509 31.443 58.103C30.8434 58.3326 30.0586 57.9506 29.7404 57.2597C29.1353 55.9116 28.54 54.5581 27.9697 53.2036C27.7874 52.7817 27.8133 52.3213 27.7547 51.8693C26.8655 52.7051 26.5856 53.905 27.046 55.0145C27.7942 56.806 28.562 58.5868 29.32 60.3729Z" fill="#613941"/>
<path d="M55.8936 37.5624C56.3949 37.7314 56.8972 37.9253 57.4492 38.232C57.4107 36.9403 57.1053 35.8345 56.3857 34.8556C55.6283 33.8084 54.6179 33.0414 53.4988 32.4236C52.1806 31.6992 50.8341 31.0159 49.5202 30.2764C48.3546 29.6206 47.2792 28.8512 46.5328 27.7087C46.5464 27.4335 46.4364 27.1884 46.2971 26.9595C45.9234 26.3757 45.8306 25.7005 45.7182 25.0361C45.6796 24.8279 45.7625 24.5399 45.4442 24.4482C45.2761 24.4901 45.1816 24.6189 45.1022 24.752C44.4487 25.8526 43.6611 26.8489 42.8172 27.8125C42.7216 27.9164 42.5664 28.0276 42.7091 28.2165C43.0654 28.2616 43.4092 28.1226 43.7666 28.1927C44.4869 28.3426 45.0985 28.6419 45.5675 29.2366C46.3207 30.1841 46.9427 31.2169 47.7101 32.1439C49.1086 33.8436 50.7951 35.142 52.8783 35.8896C53.973 36.2787 54.9273 36.8983 55.8828 37.5428L55.8936 37.5624Z" fill="#FE6161"/>
<path d="M55.8935 37.5623C55.0958 36.6266 53.998 36.1627 52.8926 35.7541C50.5648 34.8868 48.7541 33.3639 47.3085 31.3715C46.737 30.5912 46.2001 29.8046 45.5992 29.0405C44.8979 28.1408 43.6103 27.7946 42.6787 28.2077C42.2267 28.2663 41.978 28.5313 41.8709 28.9601C41.8578 29.0056 41.8501 29.0609 41.8371 29.1063C41.8449 30.0198 42.2584 30.7217 42.9268 31.3082C44.1039 32.7225 45.6873 33.5807 47.2892 34.4032C48.3045 34.9254 49.3393 35.4368 50.3034 36.051C52.2523 37.2936 53.5588 38.9422 53.6892 41.3685C54.166 40.3401 54.5116 39.2822 54.8119 38.2112C55.0378 37.398 55.0378 37.398 55.8783 37.5579L55.8935 37.5623Z" fill="#EF4343"/>
<path d="M33.1415 42.199L33.52 47.7259C34.1439 47.8399 34.6225 47.4605 35.1377 47.2395C37.2275 46.3391 39.3336 45.468 41.4072 44.5383C41.5786 44.4563 41.7813 44.408 41.8674 44.1947C40.6392 42.8724 39.4111 41.5501 38.1732 40.2332C37.9111 40.1741 37.6963 40.2928 37.5021 40.4257C36.2509 41.3214 34.8542 41.8385 33.3519 42.0955C33.2728 42.1137 33.2044 42.1515 33.1469 42.2088L33.1415 42.199Z" fill="#FEC96C"/>
<path d="M37.2813 8.06876C36.6325 7.95581 36.1678 8.42943 35.6267 8.62659C34.3775 9.08774 33.1638 9.68224 31.9372 10.2074C30.2887 10.9147 28.6392 11.5972 26.9854 12.2948C25.7881 12.8037 24.6016 13.3322 23.4043 13.8411C22.065 14.4158 20.7148 14.971 19.3754 15.5458C18.1391 16.0763 16.9233 16.621 15.687 17.1515C14.9658 17.461 14.251 17.8051 13.5018 18.0408C12.3243 18.4241 10.9965 17.5903 10.9639 16.0787C9.9357 16.5706 9.48929 17.6077 9.89901 18.5794C10.326 19.6054 11.323 20.0484 12.3867 19.6898C13.3193 19.3017 14.2132 18.8203 15.19 18.5352C16.524 17.9507 17.8526 17.3564 19.1919 16.7817C20.4185 16.2566 21.6602 15.7358 22.8922 15.2205C24.1925 14.6673 25.508 14.1185 26.8083 13.5654C28.0349 13.0403 29.2658 12.5 30.5022 11.9695C32.1853 11.2557 33.8684 10.5419 35.5613 9.82268C35.8899 9.67925 36.2024 9.50654 36.5104 9.34898C36.9618 9.0357 37.2346 8.62994 37.2867 8.07853L37.2813 8.06876Z" fill="#EC8C28"/>
<path d="M56.6376 50.7136C55.2481 51.4053 53.8037 51.9744 52.3602 52.5684C51.1424 53.0632 49.9418 53.6122 48.725 54.132C47.4051 54.6959 46.0745 55.2403 44.7546 55.8043C43.5281 56.3294 42.3025 56.8794 41.076 57.4046C39.7756 57.9577 38.4699 58.5011 37.1696 59.0542C35.9723 59.5632 34.7804 60.0819 33.5983 60.5952C32.4064 61.1139 31.2199 61.6423 30.0227 62.1513C29.6745 62.3055 29.368 62.2583 29.1965 61.8559C29.0359 61.4731 28.8655 61.0957 28.7102 60.7226C27.9304 61.0645 27.7496 61.5213 28.0807 62.2816C28.2241 62.6102 28.3578 62.9442 28.4958 63.263C28.6457 63.6263 28.8893 63.7211 29.2569 63.5561C31.0279 62.7937 32.7946 62.0465 34.5558 61.2895C37.5978 59.9902 40.6399 58.6909 43.6917 57.3862C46.8269 56.048 49.9568 54.7001 53.0921 53.362C54.1322 52.9145 55.1733 52.4919 56.2079 52.0347C57.0907 51.6486 57.1028 51.5782 56.6376 50.7136Z" fill="#613941"/>
<path d="M18.3862 36.8829C19.4466 38.6166 20.2316 40.4516 20.4115 42.5063C20.5418 43.9639 20.3308 45.3808 19.9638 46.7691C19.6449 47.9907 19.1949 49.1827 19.2583 50.4733C19.2779 50.9469 19.317 51.4096 19.3366 51.8832C20.4241 52.5821 21.6303 53.0116 22.8537 53.4952C22.8446 53.156 22.6054 53.0461 22.4594 52.8974C21.2153 51.4309 20.9252 49.7302 21.1436 47.8887C21.3479 46.0677 21.955 44.3299 22.3358 42.5515C22.5284 41.6547 22.6711 40.76 22.6383 39.8476C22.8253 39.5403 22.722 39.215 22.6934 38.8866C22.6404 38.3296 22.4887 37.8016 22.1939 37.3145C22.0826 37.1593 21.929 37.0658 21.7491 37.0632C20.7545 37.0395 19.7773 36.9551 18.797 36.796C18.6562 36.7718 18.5164 36.7726 18.4067 36.897L18.3862 36.8829Z" fill="#EF4343"/>
<path d="M45.418 24.5392C45.6704 25.088 45.5911 25.7054 45.7936 26.2563C45.8841 26.5122 45.9746 26.7681 46.1139 26.997C46.4988 26.8862 46.5635 26.519 46.6963 26.2289C47.8187 23.6708 47.8882 21.0066 47.5016 18.3013C47.2058 16.2213 46.55 14.2512 45.7468 12.3371C45.3586 11.4044 44.174 10.5297 42.8839 10.8477C41.9461 11.1112 41.0924 11.596 40.1728 11.9386C39.8486 12.0669 39.5351 12.2147 39.2163 12.3527C39.9194 12.9328 40.2504 13.693 40.2876 14.5903C40.4518 14.8182 40.6514 14.6951 40.813 14.6185C41.6645 14.1987 42.5601 13.882 43.417 13.4721C44.161 13.1117 44.2736 13.177 44.571 13.9686C45.4308 16.2848 46.0283 18.6568 45.9169 21.1531C45.8793 22.0534 45.6901 22.9101 45.4261 23.7699C45.3518 24.0276 45.2029 24.2884 45.3941 24.5651L45.418 24.5392Z" fill="#FEC96C"/>
<path d="M12.914 15.1792C13.7153 15.9599 14.6148 15.8578 15.5367 15.4501C16.7579 14.9152 17.9888 14.3749 19.2154 13.8498C20.4962 13.3074 21.7921 12.7695 23.0729 12.2271C24.2995 11.702 25.5304 11.1617 26.757 10.6366C28.0573 10.0834 29.363 9.54005 30.6633 8.9869C31.8606 8.47797 33.0481 7.97443 34.24 7.45573C35.074 7.09665 35.9026 6.72781 36.7214 6.36436C36.155 5.70873 35.3978 5.63022 34.6648 5.89524C33.4991 6.32298 32.3776 6.85374 31.2345 7.34545C29.8952 7.92018 28.5602 8.47976 27.2154 9.04473C25.9986 9.56446 24.8023 10.0983 23.5855 10.618C22.295 11.1658 21.0088 11.6984 19.728 12.2407C18.9135 12.589 18.0991 12.9373 17.2846 13.2856C15.891 13.8775 14.4975 14.4695 13.1039 15.0615C13.0355 15.0992 12.9672 15.137 12.9043 15.1846L12.914 15.1792Z" fill="#FEC96C"/>
<path d="M17.2441 38.4832C17.0983 37.7352 16.6455 37.1697 16.1829 36.6097C16.0726 36.4794 15.8701 36.4129 15.9454 36.1801C15.9058 35.9471 15.7033 35.8805 15.5442 35.7773C13.8572 34.7086 12.5448 33.28 11.4474 31.6177C10.8025 30.6358 10.1826 29.6528 9.75261 28.5521C9.54029 28.0066 9.54259 27.9416 10.0978 27.7239C10.9079 27.3908 11.6964 27.0186 12.5022 26.7006C12.7082 26.6122 12.8991 26.5194 12.9895 26.291C12.7908 25.4704 12.592 24.6497 11.9714 24.0113C10.8296 24.4131 9.75796 24.9418 8.64958 25.427C8.64497 25.5571 8.56893 25.6501 8.49289 25.7431C7.82908 26.5945 7.77295 27.5305 8.16751 28.4979C9.37174 31.414 11.0274 34.0169 13.3731 36.1617C14.3172 37.0165 15.3516 37.7576 16.5174 38.2985C16.7415 38.4041 16.9676 38.5595 17.2495 38.4929L17.2441 38.4832Z" fill="#FEC96C"/>
<path d="M17.2441 38.4829C15.8228 37.8028 14.5058 36.9885 13.3476 35.9079C12.1992 34.822 11.2342 33.5837 10.3408 32.2675C9.49502 31.0142 8.86504 29.6672 8.26871 28.2887C7.86003 27.342 8.06879 26.4745 8.70538 25.6892C8.8477 25.5085 8.88033 25.4522 8.63442 25.4225C6.73777 26.1651 6.40041 27.9067 7.21287 29.5608C8.35765 31.8852 9.65223 34.0885 11.4719 35.9506C13.1716 37.6878 15.1508 38.9391 17.5269 39.5248C17.5461 39.1445 17.407 38.8008 17.2289 38.4786L17.2441 38.4829Z" fill="#FEB53C"/>
<path d="M42.8981 10.8272C43.8992 10.8857 44.8512 11.0859 45.4084 12.0016C45.7679 12.6059 46.0006 13.2803 46.243 13.9494C47.0465 16.233 47.6029 18.5767 47.5838 21.0092C47.5707 23.1069 47.2403 25.1379 46.1432 26.9809C46.2782 27.2249 46.4131 27.469 46.548 27.7131C48.7893 24.3198 49.0149 20.6005 48.2211 16.7436C47.8992 15.239 47.3995 13.7817 46.8304 12.3372C46.1222 10.549 44.5242 9.94104 42.8981 10.8272Z" fill="#FEB53C"/>
<path d="M41.8675 44.1947C40.4446 44.8029 39.0163 45.4013 37.5935 46.0094C36.2389 46.5798 34.8844 47.1502 33.5353 47.7303C33.5549 48.2038 33.5745 48.6774 33.5941 49.1509C36.1361 48.077 38.6782 47.0031 41.2148 45.9195C41.7593 45.6822 42.2875 45.4157 42.8265 45.1687C42.5086 44.8473 42.1961 44.5357 41.888 44.2089L41.8675 44.1947Z" fill="#EC8D28"/>
<path d="M33.1415 42.199C34.0472 42.2464 34.8671 41.9079 35.6988 41.6138C36.6042 41.2917 37.338 40.6821 38.1732 40.2331C37.9272 39.719 37.4685 39.3735 37.1791 38.8961C36.0048 39.8385 34.6644 40.3884 33.1924 40.654C33.0883 40.6733 33.021 40.736 32.9591 40.8085C33.0232 41.2702 33.0775 41.7373 33.1415 42.199Z" fill="#EC8D28"/>
<path d="M11.9616 24.0167C12.2873 24.7672 12.6086 25.5328 12.9343 26.2833C13.5224 26.3788 13.9823 26.1501 14.3528 25.6903C14.1178 25.0809 13.833 24.4735 13.6621 23.8415C13.5729 23.4956 13.4213 23.452 13.1427 23.4785C12.7458 23.6597 12.3434 23.8311 11.9465 24.0123L11.9616 24.0167Z" fill="#EC8D28"/>
<path d="M22.0433 37.2956C22.2947 37.8195 22.5211 38.3444 22.5307 38.9382C22.9085 39.1373 23.2035 39.5096 23.6694 39.5452C24.1917 39.4986 24.6948 39.348 25.186 39.1529C25.4422 38.9475 25.2235 38.8517 25.0806 38.7778C24.2386 38.3382 23.5388 37.7181 22.7674 37.1758C22.5032 37.0669 22.2573 37.0371 22.0433 37.2956Z" fill="#EC8D28"/>
<path d="M40.3222 14.5838C40.4969 14.4618 40.612 14.3472 40.4869 14.0977C40.2473 13.6183 40.0815 13.1108 39.8322 12.6368C39.6757 12.3537 39.4981 12.2861 39.225 12.3224C39.059 12.4141 38.8725 12.4918 38.7065 12.5835C38.2543 12.757 38.1953 13.0191 38.462 13.4325C38.6705 13.7634 38.8106 14.1321 38.9409 14.5062C39.0776 14.915 39.3397 14.974 39.7051 14.874C40.0029 14.9516 40.2025 14.8285 40.3266 14.5687L40.3222 14.5838Z" fill="#EC8D28"/>
<path d="M42.9322 31.3181C42.5133 30.6064 42.0998 29.9045 41.8425 29.1162C41.7351 29.1756 41.6482 29.2491 41.6436 29.3791C41.6004 30.3845 41.3307 31.3494 41.1716 32.3297C41.8319 32.1176 42.3411 31.6321 42.9322 31.3181Z" fill="#EC8D28"/>
<path d="M23.6693 39.5454C23.2731 39.3821 23.039 38.9124 22.5307 38.9384C22.568 39.2365 22.5902 39.5302 22.6275 39.8282C22.9733 39.739 23.3235 39.6346 23.6693 39.5454Z" fill="#FDBB54"/>
<path d="M24.699 21.7168C24.1083 22.2855 23.3859 22.6849 22.6786 23.0887C21.9127 23.5248 21.7331 23.8918 21.8646 24.7752C21.843 25.2204 22.1373 25.4529 22.4891 25.6281C23.0194 25.8958 23.5727 26.1125 24.1444 26.2936C24.9489 26.5499 25.4041 27.0504 25.5237 27.8893C25.5898 28.4008 25.735 28.8942 25.8705 29.3929C26.0307 30.0054 26.4113 30.3941 27.0264 30.5384C27.621 30.6686 28.0755 30.4301 28.4524 30.005C28.8293 29.58 29.19 29.1256 29.5409 28.6767C29.9917 28.1088 30.5492 27.8261 31.2977 27.9349C31.8003 28.014 32.3258 28.0421 32.8307 28.0562C33.0756 28.061 33.3572 28.1093 33.5365 27.8572C34.5878 27.1995 34.7049 26.6504 34.0364 25.5796C33.7049 25.049 33.3538 24.5293 33.032 23.9934C32.8819 23.7449 32.746 23.4759 32.8431 23.1673C32.9912 22.7667 33.2715 22.4206 33.2833 21.9807C33.4554 21.5541 33.6534 21.1514 33.7854 20.7216C34.1159 19.6593 33.291 18.7897 32.2134 19.054C31.5857 19.2098 30.9483 19.371 30.3216 19.5517C29.6852 19.7378 29.161 19.6197 28.6874 19.155C28.2559 18.7434 27.7864 18.3784 27.3506 17.982C26.8996 17.5812 26.3787 17.423 25.8158 17.696C25.2822 17.9527 25.0775 18.4356 25.0665 19.0152C25.0596 19.2103 25.0429 19.4107 25.036 19.6057C24.8438 19.7884 24.8791 20.0366 24.8786 20.2663C24.8689 20.7561 24.7737 21.2294 24.7087 21.7114L24.699 21.7168Z" fill="#FEFEFE"/>
<path d="M33.5322 27.8723C32.7192 28.0158 31.908 27.8397 31.1063 27.773C30.4195 27.7065 29.9195 27.932 29.4969 28.4588C29.108 28.9542 28.6985 29.4355 28.2998 29.9364C27.9533 30.3702 27.5054 30.5285 26.9758 30.4006C26.456 30.2674 26.1176 29.9318 26.0103 29.392C25.8622 28.7091 25.6653 28.0531 25.527 27.3648C25.4154 26.8401 25.1127 26.5231 24.6406 26.3379C24.0668 26.107 23.493 25.8761 22.9203 25.6701C22.4493 25.5099 22.0738 25.2458 21.8646 24.7751C21.1471 25.414 21.2564 26.488 22.116 26.8668C22.6908 27.1227 23.2797 27.3579 23.8872 27.5575C24.6365 27.8061 25.0798 28.2621 25.2179 29.0653C25.3184 29.6853 25.4938 30.3022 25.6637 30.9093C25.911 31.8178 27.1424 32.1314 27.7874 31.4306C28.2653 30.9115 28.7269 30.3631 29.1474 29.7864C29.53 29.2563 30.0276 29.0959 30.6495 29.16C31.3363 29.2265 32.0231 29.2929 32.723 29.3139C33.4078 29.3305 33.7888 29.0051 33.9819 28.363C34.1052 27.9634 34.0699 27.7152 33.5571 27.8713L33.5322 27.8723Z" fill="#EC8D28"/>
<path d="M36.1139 15.5719C36.4107 16.1089 36.688 16.6567 37.1259 17.1029C37.2719 17.2516 37.4253 17.46 37.6715 17.3749C37.9274 17.2844 37.9268 17.0298 37.9132 16.8207C37.7533 15.0097 36.9861 13.4836 35.7634 12.1711C35.5861 11.9886 35.3383 11.7942 35.0899 11.9443C34.8556 12.0738 34.9027 12.3665 34.9423 12.5995C35.1557 13.6542 35.5957 14.6347 36.1236 15.5665L36.1139 15.5719Z" fill="#FEFEFE"/>
<path d="M38.5817 21.0272C38.6734 21.1932 38.722 21.281 38.7652 21.3591C38.8397 21.4709 38.8772 21.6541 39.0496 21.597C39.2025 21.5508 39.2202 21.3753 39.2151 21.2506C39.1921 20.3328 38.9761 19.458 38.4891 18.6692C38.4081 18.5228 38.2806 18.3383 38.0789 18.4116C37.9022 18.4838 37.9657 18.6909 37.9816 18.835C38.0742 19.6251 38.285 20.3754 38.5817 21.0272Z" fill="#FEFDFC"/>
<path d="M24.699 21.7166C25.1414 21.0642 24.9306 20.3139 25.0263 19.6109C24.9192 19.5554 24.8303 19.5791 24.7953 19.7004C24.613 20.362 24.5109 21.0304 24.699 21.7166Z" fill="#ED9230"/>
<path d="M33.2736 21.9861C33.1103 22.3823 32.8755 22.7416 32.8334 23.1727C33.1083 22.8168 33.4091 22.4848 33.2736 21.9861Z" fill="#F1A146"/>
<path d="M45.8361 47.4308C45.2771 46.3504 45.0605 46.3045 44.1733 46.7057C42.5703 47.4261 40.9448 48.0826 39.3256 48.7738C38.0893 49.3043 36.8627 49.8295 35.6263 50.36C35.0472 50.6037 34.4691 50.8723 33.8738 51.0866C32.861 51.4681 32.7043 51.7842 33.1292 52.7602C33.3729 53.3393 33.5873 53.9347 33.8559 54.5127C34.1471 55.1548 34.4958 55.2552 35.1389 54.9889C37.5183 53.9667 39.8987 52.9694 42.2835 51.9569C43.5296 51.421 44.7909 50.8894 46.0305 50.3188C46.7117 50.006 46.7879 49.7981 46.525 49.115C46.2836 48.4708 46.0076 47.8331 45.8415 47.4405L45.8361 47.4308Z" fill="#BFA6AB"/>
<path d="M49.2129 45.1691C49.3422 45.5183 49.6763 45.8689 49.9659 46.2314C50.0977 46.4008 50.2892 46.5626 50.5289 46.4428C50.7339 46.3295 50.821 46.1411 50.8312 45.906C50.8694 45.2603 50.1642 44.1461 49.5601 43.9064C49.3522 43.8301 49.1217 43.6899 48.9013 43.9137C48.6862 44.1473 48.7605 44.3739 48.8955 44.618C48.9818 44.7742 49.0682 44.9304 49.2031 45.1745L49.2129 45.1691Z" fill="#BDA4A9"/>
<path d="M51.1715 47.974C51.3164 48.0978 51.3178 48.4922 51.5487 48.4027C51.8589 48.295 51.6861 47.9826 51.6357 47.73C51.5735 47.433 51.4722 47.1576 51.167 47.0204C51.0955 46.9834 50.9958 46.9876 50.9545 47.0742C50.7891 47.4206 51.0291 47.6703 51.1661 47.9642L51.1715 47.974Z" fill="#BBA1A6"/>
<path d="M20.7363 14.0414C19.2533 14.4024 17.9931 14.9588 16.7274 15.5056C16.1093 15.7708 15.4857 16.0263 14.8719 16.2764C14.2234 16.5329 13.5387 16.5163 12.8552 16.4098C13.9331 16.9993 14.9902 16.7209 16.0258 16.2886C17.5918 15.6395 19.119 14.8973 20.7461 14.036L20.7363 14.0414Z" fill="#FEFBF6"/>
</g>
<defs>
<clipPath id="clip0_322_2506">
<rect width="45.7606" height="53.3799" fill="white" transform="matrix(-0.875167 0.48382 0.48382 0.875167 40.0481 0)"/>
</clipPath>
</defs>
</svg>
