<svg width="66" height="69" viewBox="0 0 66 69" fill="none" xmlns="http://www.w3.org/2000/svg">
<g clip-path="url(#clip0_322_2470)">
<path d="M27.1777 12.5889C27.683 12.8045 27.9177 12.5646 28.141 12.1145C28.5317 11.3617 28.8638 10.5765 29.4443 9.94141C29.6692 9.69607 29.5312 9.53057 29.3694 9.33912C29.9609 9.28371 30.42 9.65224 30.921 9.85274C34.0573 11.1659 37.1872 12.5138 40.3171 13.8617C43.0696 15.0392 45.8231 16.1918 48.5594 17.3986C49.0496 17.6186 49.5408 17.8137 50.0418 18.0142C50.2826 18.109 50.5233 18.2039 50.6895 18.4105C50.8295 19.0105 50.4111 19.4675 50.2063 19.9534C48.7268 23.3674 46.7221 26.4402 44.1153 29.1035C41.7949 31.4791 39.1551 33.3722 35.9161 34.2967C31.0951 35.685 26.5485 33.5794 24.3675 28.9702C24.2848 28.797 24.2183 28.5946 24.0945 28.4496C23.8715 28.0459 23.9248 27.6037 23.9325 27.1746C23.9211 23.2295 24.7269 19.443 26.2059 15.7993C26.3396 15.4653 26.3011 15.189 26.1683 14.8989C26.9446 14.6015 27.0752 13.8579 27.3371 13.1997C27.432 12.9589 27.2085 12.8099 27.1874 12.5943L27.1777 12.5889Z" fill="#FEC96C"/>
<path d="M24.1582 28.3574C24.6188 28.9307 24.8597 29.6248 25.2435 30.2448C27.1842 33.421 31.069 35.1097 34.7331 34.4075C37.7182 33.827 40.2354 32.3633 42.4883 30.4093C44.5131 28.6606 46.1807 26.6125 47.6518 24.3665C48.5742 22.9517 49.2959 21.4386 50.0372 19.9364C50.2659 19.4765 50.4405 18.9994 50.679 18.5449C50.8229 18.446 50.9778 18.4424 51.1253 18.4985C51.8529 18.7732 52.5741 19.0827 53.2791 19.4215C53.3865 19.4808 53.468 19.5641 53.4726 19.6941C53.1412 20.8239 52.8098 21.9536 52.4687 23.0779C52.3988 23.3197 52.5658 23.3865 52.7014 23.487C52.1823 23.9649 52.1285 24.6617 51.8296 25.2485C51.7378 25.4145 51.7144 25.6182 51.6173 25.794C51.0006 27.3014 50.2029 28.7214 49.3714 30.11C47.742 32.8039 45.7696 35.2188 43.2956 37.2036C42.507 37.8001 41.7564 38.4431 40.8644 38.8806C40.7421 38.9404 40.674 39.0175 40.6884 39.1529C40.4392 39.1426 40.2159 39.1084 39.9658 39.2378C37.8477 40.3486 35.6093 40.9849 33.1784 40.7245C33.0939 40.716 32.9965 40.7769 32.9055 40.8031C31.5173 40.6857 30.2799 40.1801 29.133 39.4186C28.9388 39.2857 28.7662 39.1138 28.6909 38.881C26.7599 37.2782 25.5876 35.2024 24.887 32.8266C24.839 32.6598 24.766 32.492 24.7028 32.3296C24.2744 31.5829 24.2943 30.7398 24.1333 29.9243C24.084 29.6676 24.1149 29.4042 23.9595 29.1781C23.9225 29.1066 23.906 29.0211 23.9243 28.9419C24.0268 28.7564 23.9971 28.5105 24.1538 28.3422L24.1582 28.3574Z" fill="#FEB53C"/>
<path d="M12.4304 48.8336C12.6022 48.0617 12.981 47.3534 13.31 46.643C13.7436 45.6972 13.9766 44.6533 14.6597 43.8327C15.5103 42.8244 16.8403 42.5399 18.0322 43.0586C19.7001 43.7767 21.3897 44.4558 23.0587 45.1491C23.9159 45.1895 24.6299 45.6735 25.3857 45.9894C27.4322 46.853 29.4732 47.7264 31.5196 48.5901C31.819 48.7173 32.0923 48.8684 32.2814 49.1259C33.9255 49.8181 35.5696 50.5103 37.2126 51.2275C37.5412 51.3709 37.9207 51.4915 38.11 51.8638C38.3201 52.3369 38.2355 52.8127 38.0425 53.2541C37.4742 54.5588 36.984 55.9067 36.342 57.1833C35.7981 58.2593 35.1074 58.5403 34.0023 58.0951C31.571 57.1207 29.1839 56.0432 26.7742 55.0297C24.0651 53.8889 21.3777 52.7092 18.6784 51.5738C16.7198 50.7587 14.7839 49.8797 12.8199 49.0744C12.6724 49.0184 12.5465 48.9233 12.426 48.8184L12.4304 48.8336Z" fill="#804F59"/>
<path d="M36.5545 60.373C36.7595 60.4864 36.9645 60.5997 37.1696 60.7131C37.2417 61.0206 37.1253 61.3004 37.0088 61.5802C36.6767 62.3654 36.3011 62.5146 35.5159 62.1825C30.1813 59.9345 24.8639 57.6322 19.5401 55.3646C16.3506 54.0093 13.1621 52.629 9.96723 51.2834C9.67767 51.1615 9.36755 51.0538 9.23682 50.7139C9.45152 49.7491 9.90125 49.2584 10.5516 49.3502C10.8594 49.3929 11.1695 49.5006 11.4277 49.6561C11.8562 49.9185 12.039 49.7263 12.1844 49.3479C12.5697 50.1727 13.4292 50.2782 14.1309 50.5769C18.9591 52.6342 23.7765 54.7111 28.6003 56.7532C31.0784 57.8045 33.5456 58.8753 36.0237 59.9266C36.2493 60.0258 36.4651 60.1197 36.5545 60.373Z" fill="#7F4F59"/>
<path d="M48.3324 39.5293C48.0617 40.6415 48.2362 41.7323 48.4357 42.8241C48.7667 44.6004 49.3651 46.3079 49.6354 48.1017C49.899 49.8153 49.7908 51.4636 48.8101 52.9609C48.5325 53.3938 48.2072 53.7748 47.7919 54.1571C47.5867 53.4445 47.3794 52.7818 47.0347 52.1833C46.9227 51.994 46.8367 51.7807 46.5432 51.8734C46.3469 51.7904 46.3845 51.6072 46.4102 51.4684C46.6193 49.9142 46.2511 48.4359 45.8125 46.9697C45.1316 44.7196 45.0911 42.441 45.7593 40.1718C46.1133 38.978 46.7016 37.9139 47.3593 36.8625C48.2167 36.5335 49.0611 36.159 50.0213 36.2437C50.0696 36.5253 49.8684 36.6818 49.7214 36.8555C49.302 37.3374 48.9997 37.8841 48.7702 38.4838C48.6311 38.8276 48.5897 39.2253 48.3476 39.5249L48.3324 39.5293Z" fill="#FE6161"/>
<path d="M28.5931 8.06874C28.427 7.37779 28.5905 6.80534 29.1486 6.34909C30.0253 6.40036 30.7545 6.87993 31.5299 7.20662C33.9005 8.19854 36.2648 9.22514 38.6301 10.2268C41.363 11.3935 44.0808 12.5646 46.8137 13.7313C48.0848 14.2682 49.3494 14.8398 50.6366 15.3475C51.2948 15.6094 51.9408 15.6861 52.5673 15.2676C52.6852 15.1926 52.8163 15.1631 52.9604 15.1791C53.596 15.505 54.3029 15.679 54.8953 16.083C55.0905 16.6753 54.7995 17.4322 54.1872 17.8713C53.5391 18.3288 52.8317 18.4093 52.0943 18.1292C50.7226 17.613 49.3853 16.9884 48.0405 16.4235C45.3564 15.2837 42.683 14.1245 39.9989 12.9848C37.5697 11.9605 35.1566 10.9069 32.723 9.86747C31.3391 9.28091 29.9337 8.7334 28.5887 8.05358L28.5931 8.06874Z" fill="#FEB53C"/>
<path d="M36.5545 60.3729C35.2292 59.8188 33.9094 59.2548 32.5842 58.7007C31.7404 58.3362 30.8923 57.9565 30.0334 57.5964C28.6745 57.0109 27.3146 56.4503 25.9654 55.8702C24.7193 55.3342 23.484 54.7788 22.2282 54.2375C20.9821 53.7016 19.7144 53.2047 18.4727 52.6839C17.6235 52.3292 16.7808 51.9398 15.9273 51.5699C14.9512 51.1451 13.9633 50.7646 12.998 50.3202C12.5913 50.1336 11.9898 50.0688 12.179 49.3576C12.261 49.1862 12.343 49.0148 12.4304 48.8337C12.8474 48.7711 13.1915 49.025 13.5298 49.1738C15.5274 50.0105 17.4927 50.9057 19.4947 51.7575C21.8253 52.7528 24.1774 53.709 26.508 54.7042C28.5003 55.5507 30.4807 56.4415 32.4675 57.2977C33.1149 57.5792 33.7678 57.8509 34.4314 58.103C35.0311 58.3326 35.8159 57.9506 36.1341 57.2597C36.7391 55.9116 37.3344 54.5581 37.9048 53.2036C38.087 52.7817 38.0612 52.3213 38.1198 51.8693C39.009 52.7051 39.2889 53.905 38.8285 55.0145C38.0803 56.806 37.3125 58.5868 36.5545 60.3729Z" fill="#613941"/>
<path d="M9.98089 37.5624C9.47956 37.7314 8.9772 37.9253 8.42524 38.232C8.46372 36.9403 8.76914 35.8345 9.48874 34.8556C10.2461 33.8084 11.2565 33.0414 12.3756 32.4236C13.6939 31.6992 15.0404 31.0159 16.3542 30.2764C17.5198 29.6206 18.5953 28.8512 19.3416 27.7087C19.328 27.4335 19.438 27.1884 19.5773 26.9595C19.951 26.3757 20.0439 25.7005 20.1563 25.0361C20.1949 24.8279 20.1119 24.5399 20.4303 24.4482C20.5983 24.4901 20.6928 24.6189 20.7722 24.752C21.4257 25.8526 22.2134 26.8489 23.0573 27.8125C23.1528 27.9164 23.308 28.0276 23.1654 28.2165C22.809 28.2616 22.4652 28.1226 22.1078 28.1927C21.3876 28.3426 20.776 28.6419 20.307 29.2366C19.5537 30.1841 18.9318 31.2169 18.1644 32.1439C16.7658 33.8436 15.0793 35.142 12.9961 35.8896C11.9015 36.2787 10.9471 36.8983 9.99168 37.5428L9.98089 37.5624Z" fill="#FE6161"/>
<path d="M9.9809 37.5623C10.7786 36.6266 11.8763 36.1627 12.9818 35.7541C15.3096 34.8868 17.1202 33.3639 18.5659 31.3715C19.1374 30.5912 19.6743 29.8046 20.2752 29.0405C20.9765 28.1408 22.2641 27.7946 23.1957 28.2077C23.6477 28.2663 23.8964 28.5313 24.0034 28.9601C24.0165 29.0056 24.0242 29.0609 24.0373 29.1063C24.0295 30.0198 23.616 30.7217 22.9476 31.3082C21.7705 32.7225 20.1871 33.5807 18.5852 34.4032C17.5699 34.9254 16.5351 35.4368 15.571 36.051C13.6221 37.2936 12.3155 38.9422 12.1852 41.3685C11.7084 40.3401 11.3627 39.2822 11.0625 38.2112C10.8365 37.398 10.8365 37.398 9.99606 37.5579L9.9809 37.5623Z" fill="#EF4343"/>
<path d="M32.7329 42.199L32.3543 47.7259C31.7305 47.8399 31.2518 47.4605 30.7367 47.2395C28.6468 46.3391 26.5408 45.468 24.4671 44.5383C24.2958 44.4563 24.0931 44.408 24.007 44.1947C25.2352 42.8724 26.4633 41.5501 27.7012 40.2332C27.9633 40.1741 28.1781 40.2928 28.3723 40.4257C29.6235 41.3214 31.0202 41.8385 32.5225 42.0955C32.6016 42.1137 32.67 42.1515 32.7275 42.2088L32.7329 42.199Z" fill="#FEC96C"/>
<path d="M28.5931 8.06876C29.2419 7.95581 29.7066 8.42943 30.2477 8.62659C31.4969 9.08774 32.7106 9.68224 33.9372 10.2074C35.5857 10.9147 37.2351 11.5972 38.889 12.2948C40.0863 12.8037 41.2728 13.3322 42.47 13.8411C43.8094 14.4158 45.1596 14.971 46.4989 15.5458C47.7353 16.0763 48.9511 16.621 50.1874 17.1515C50.9086 17.461 51.6234 17.8051 52.3726 18.0408C53.5501 18.4241 54.8779 17.5903 54.9105 16.0787C55.9387 16.5706 56.3851 17.6077 55.9754 18.5794C55.5484 19.6054 54.5514 20.0484 53.4877 19.6898C52.5551 19.3017 51.6612 18.8203 50.6844 18.5352C49.3504 17.9507 48.0218 17.3564 46.6825 16.7817C45.4559 16.2566 44.2142 15.7358 42.9822 15.2205C41.6819 14.6673 40.3664 14.1185 39.0661 13.5654C37.8395 13.0403 36.6086 12.5 35.3722 11.9695C33.6891 11.2557 32.006 10.5419 30.3131 9.82268C29.9845 9.67925 29.672 9.50654 29.364 9.34898C28.9126 9.0357 28.6398 8.62994 28.5877 8.07853L28.5931 8.06876Z" fill="#EC8C28"/>
<path d="M9.23682 50.7136C10.6263 51.4053 12.0707 51.9744 13.5142 52.5684C14.732 53.0632 15.9326 53.6122 17.1494 54.132C18.4693 54.6959 19.7999 55.2403 21.1197 55.8043C22.3463 56.3294 23.5719 56.8794 24.7984 57.4046C26.0987 57.9577 27.4045 58.5011 28.7048 59.0542C29.9021 59.5632 31.0939 60.0819 32.2761 60.5952C33.468 61.1139 34.6544 61.6423 35.8517 62.1513C36.1999 62.3055 36.5064 62.2583 36.6779 61.8559C36.8385 61.4731 37.0089 61.0957 37.1642 60.7226C37.9439 61.0645 38.1248 61.5213 37.7937 62.2816C37.6503 62.6102 37.5166 62.9442 37.3786 63.263C37.2287 63.6263 36.9851 63.7211 36.6175 63.5561C34.8465 62.7937 33.0798 62.0465 31.3186 61.2895C28.2766 59.9902 25.2345 58.6909 22.1827 57.3862C19.0474 56.048 15.9175 54.7001 12.7823 53.362C11.7422 52.9145 10.7011 52.4919 9.66648 52.0347C8.78368 51.6486 8.77161 51.5782 9.23682 50.7136Z" fill="#613941"/>
<path d="M47.4883 36.8829C46.4278 38.6166 45.6428 40.4516 45.4629 42.5063C45.3327 43.9639 45.5437 45.3808 45.9106 46.7691C46.2296 47.9907 46.6796 49.1827 46.6162 50.4733C46.5966 50.9469 46.5574 51.4096 46.5378 51.8832C45.4503 52.5821 44.2442 53.0116 43.0208 53.4952C43.0298 53.156 43.2691 53.0461 43.415 52.8974C44.6591 51.4309 44.9492 49.7302 44.7308 47.8887C44.5266 46.0677 43.9194 44.3299 43.5387 42.5515C43.3461 41.6547 43.2034 40.76 43.2361 39.8476C43.0491 39.5403 43.1525 39.215 43.181 38.8866C43.2341 38.3296 43.3857 37.8016 43.6805 37.3145C43.7918 37.1593 43.9455 37.0658 44.1253 37.0632C45.12 37.0395 46.0971 36.9551 47.0774 36.796C47.2182 36.7718 47.358 36.7726 47.4677 36.897L47.4883 36.8829Z" fill="#EF4343"/>
<path d="M20.4565 24.5392C20.2041 25.088 20.2834 25.7054 20.0808 26.2563C19.9903 26.5122 19.8998 26.7681 19.7605 26.997C19.3756 26.8862 19.3109 26.519 19.1782 26.2289C18.0557 23.6708 17.9862 21.0066 18.3728 18.3013C18.6686 16.2213 19.3244 14.2512 20.1276 12.3371C20.5158 11.4044 21.7004 10.5297 22.9905 10.8477C23.9283 11.1112 24.7821 11.596 25.7016 11.9386C26.0259 12.0669 26.3393 12.2147 26.6581 12.3527C25.9551 12.9328 25.624 13.693 25.5869 14.5903C25.4226 14.8182 25.223 14.6951 25.0614 14.6185C24.21 14.1987 23.3143 13.882 22.4574 13.4721C21.7134 13.1117 21.6008 13.177 21.3034 13.9686C20.4436 16.2848 19.8461 18.6568 19.9575 21.1531C19.9951 22.0534 20.1843 22.9101 20.4484 23.7699C20.5226 24.0276 20.6716 24.2884 20.4803 24.5651L20.4565 24.5392Z" fill="#FEC96C"/>
<path d="M52.9604 15.1792C52.1591 15.9599 51.2596 15.8578 50.3377 15.4501C49.1166 14.9152 47.8856 14.3749 46.659 13.8498C45.3782 13.3074 44.0823 12.7695 42.8015 12.2271C41.5749 11.702 40.344 11.1617 39.1174 10.6366C37.8171 10.0834 36.5114 9.54005 35.2111 8.9869C34.0138 8.47797 32.8263 7.97443 31.6344 7.45573C30.8004 7.09665 29.9718 6.72781 29.153 6.36436C29.7194 5.70873 30.4766 5.63022 31.2096 5.89524C32.3753 6.32298 33.4968 6.85374 34.6399 7.34545C35.9793 7.92018 37.3143 8.47976 38.659 9.04473C39.8758 9.56446 41.0721 10.0983 42.2889 10.618C43.5794 11.1658 44.8656 11.6984 46.1464 12.2407C46.9609 12.589 47.7753 12.9373 48.5898 13.2856C49.9834 13.8775 51.377 14.4695 52.7705 15.0615C52.8389 15.0992 52.9072 15.137 52.9702 15.1846L52.9604 15.1792Z" fill="#FEC96C"/>
<path d="M48.6304 38.4832C48.7762 37.7352 49.229 37.1697 49.6916 36.6097C49.8019 36.4794 50.0043 36.4129 49.9291 36.1801C49.9687 35.9471 50.1712 35.8805 50.3303 35.7773C52.0173 34.7086 53.3297 33.28 54.4271 31.6177C55.0719 30.6358 55.6918 29.6528 56.1219 28.5521C56.3342 28.0066 56.3319 27.9416 55.7767 27.7239C54.9666 27.3908 54.1781 27.0186 53.3723 26.7006C53.1663 26.6122 52.9754 26.5194 52.885 26.291C53.0837 25.4704 53.2825 24.6497 53.9031 24.0113C55.0449 24.4131 56.1165 24.9418 57.2249 25.427C57.2295 25.5571 57.3055 25.6501 57.3816 25.7431C58.0454 26.5945 58.1015 27.5305 57.707 28.4979C56.5027 31.414 54.8471 34.0169 52.5014 36.1617C51.5572 37.0165 50.5229 37.7576 49.3571 38.2985C49.133 38.4041 48.9069 38.5595 48.625 38.4929L48.6304 38.4832Z" fill="#FEC96C"/>
<path d="M48.6304 38.4829C50.0517 37.8028 51.3686 36.9885 52.5268 35.9079C53.6753 34.822 54.6403 33.5837 55.5337 32.2675C56.3795 31.0142 57.0094 29.6672 57.6058 28.2887C58.0145 27.342 57.8057 26.4745 57.1691 25.6892C57.0268 25.5085 56.9942 25.4522 57.2401 25.4225C59.1367 26.1651 59.4741 27.9067 58.6616 29.5608C57.5168 31.8852 56.2223 34.0885 54.4025 35.9506C52.7028 37.6878 50.7237 38.9391 48.3476 39.5248C48.3284 39.1445 48.4674 38.8008 48.6456 38.4786L48.6304 38.4829Z" fill="#FEB53C"/>
<path d="M22.9764 10.8272C21.9753 10.8857 21.0233 11.0859 20.4661 12.0016C20.1065 12.6059 19.8739 13.2803 19.6315 13.9494C18.8279 16.233 18.2716 18.5767 18.2907 21.0092C18.3038 23.1069 18.6341 25.1379 19.7313 26.9809C19.5963 27.2249 19.4614 27.469 19.3265 27.7131C17.0851 24.3198 16.8596 20.6005 17.6534 16.7436C17.9753 15.239 18.475 13.7817 19.0441 12.3372C19.7523 10.549 21.3503 9.94104 22.9764 10.8272Z" fill="#FEB53C"/>
<path d="M24.007 44.1947C25.4299 44.8029 26.8581 45.4013 28.281 46.0094C29.6355 46.5798 30.99 47.1502 32.3392 47.7303C32.3196 48.2038 32.3 48.6774 32.2804 49.1509C29.7383 48.077 27.1963 47.0031 24.6596 45.9195C24.1152 45.6822 23.587 45.4157 23.0479 45.1687C23.3658 44.8473 23.6783 44.5357 23.9864 44.2089L24.007 44.1947Z" fill="#EC8D28"/>
<path d="M32.7329 42.199C31.8272 42.2464 31.0073 41.9079 30.1756 41.6138C29.2702 41.2917 28.5365 40.6821 27.7012 40.2331C27.9472 39.719 28.4059 39.3735 28.6953 38.8961C29.8696 39.8385 31.21 40.3884 32.682 40.654C32.7861 40.6733 32.8534 40.736 32.9153 40.8085C32.8512 41.2702 32.797 41.7373 32.7329 42.199Z" fill="#EC8D28"/>
<path d="M53.9128 24.0167C53.5872 24.7672 53.2659 25.5328 52.9402 26.2833C52.3521 26.3788 51.8922 26.1501 51.5217 25.6903C51.7567 25.0809 52.0414 24.4735 52.2124 23.8415C52.3016 23.4956 52.4532 23.452 52.7318 23.4785C53.1287 23.6597 53.5311 23.8311 53.928 24.0123L53.9128 24.0167Z" fill="#EC8D28"/>
<path d="M43.8311 37.2956C43.5797 37.8195 43.3533 38.3444 43.3437 38.9382C42.9659 39.1373 42.6709 39.5096 42.2051 39.5452C41.6827 39.4986 41.1796 39.348 40.6884 39.1529C40.4322 38.9475 40.6509 38.8517 40.7938 38.7778C41.6359 38.3382 42.3356 37.7181 43.107 37.1758C43.3712 37.0669 43.6171 37.0371 43.8311 37.2956Z" fill="#EC8D28"/>
<path d="M25.5522 14.5838C25.3775 14.4618 25.2624 14.3472 25.3876 14.0977C25.6271 13.6183 25.7929 13.1108 26.0422 12.6368C26.1987 12.3537 26.3763 12.2861 26.6494 12.3224C26.8154 12.4141 27.0019 12.4918 27.1679 12.5835C27.6201 12.757 27.6792 13.0191 27.4124 13.4325C27.2039 13.7634 27.0639 14.1321 26.9335 14.5062C26.7968 14.915 26.5347 14.974 26.1693 14.874C25.8715 14.9516 25.6719 14.8285 25.5478 14.5687L25.5522 14.5838Z" fill="#EC8D28"/>
<path d="M22.9421 31.3181C23.3611 30.6064 23.7746 29.9045 24.0319 29.1162C24.1393 29.1756 24.2262 29.2491 24.2308 29.3791C24.274 30.3845 24.5437 31.3494 24.7028 32.3297C24.0425 32.1176 23.5333 31.6321 22.9421 31.3181Z" fill="#EC8D28"/>
<path d="M42.2051 39.5454C42.6013 39.3821 42.8355 38.9124 43.3437 38.9384C43.3064 39.2365 43.2842 39.5302 43.2469 39.8282C42.9011 39.739 42.5509 39.6346 42.2051 39.5454Z" fill="#FDBB54"/>
<path d="M41.1754 21.7168C41.766 22.2855 42.4885 22.6849 43.1958 23.0887C43.9617 23.5248 44.1412 23.8918 44.0098 24.7752C44.0313 25.2204 43.7371 25.4529 43.3853 25.6281C42.8549 25.8958 42.3017 26.1125 41.73 26.2936C40.9254 26.5499 40.4703 27.0504 40.3507 27.8893C40.2846 28.4008 40.1393 28.8942 40.0038 29.3929C39.8437 30.0054 39.4631 30.3941 38.8479 30.5384C38.2533 30.6686 37.7988 30.4301 37.422 30.005C37.0451 29.58 36.6844 29.1256 36.3335 28.6767C35.8826 28.1088 35.3251 27.8261 34.5766 27.9349C34.074 28.014 33.5486 28.0421 33.0437 28.0562C32.7988 28.061 32.5172 28.1093 32.3379 27.8572C31.2865 27.1995 31.1695 26.6504 31.8379 25.5796C32.1695 25.049 32.5205 24.5293 32.8423 23.9934C32.9924 23.7449 33.1284 23.4759 33.0313 23.1673C32.8831 22.7667 32.6028 22.4206 32.5911 21.9807C32.419 21.5541 32.221 21.1514 32.0889 20.7216C31.7584 19.6593 32.5833 18.7897 33.6609 19.054C34.2886 19.2098 34.9261 19.371 35.5527 19.5517C36.1892 19.7378 36.7134 19.6197 37.187 19.155C37.6184 18.7434 38.0879 18.3784 38.5238 17.982C38.9748 17.5812 39.4956 17.423 40.0586 17.696C40.5922 17.9527 40.7969 18.4356 40.8079 19.0152C40.8148 19.2103 40.8314 19.4107 40.8383 19.6057C41.0305 19.7884 40.9953 20.0366 40.9958 20.2663C41.0054 20.7561 41.1007 21.2294 41.1656 21.7114L41.1754 21.7168Z" fill="#FEFEFE"/>
<path d="M32.3422 27.8723C33.1552 28.0158 33.9664 27.8397 34.7681 27.773C35.4549 27.7065 35.9549 27.932 36.3775 28.4588C36.7664 28.9542 37.1759 29.4355 37.5746 29.9364C37.9212 30.3702 38.369 30.5285 38.8986 30.4006C39.4184 30.2674 39.7568 29.9318 39.8641 29.392C40.0122 28.7091 40.2091 28.0531 40.3474 27.3648C40.459 26.8401 40.7618 26.5231 41.2338 26.3379C41.8076 26.107 42.3814 25.8761 42.9541 25.6701C43.4251 25.5099 43.8006 25.2458 44.0098 24.7751C44.7274 25.414 44.618 26.488 43.7585 26.8668C43.1836 27.1227 42.5947 27.3579 41.9872 27.5575C41.2379 27.8061 40.7946 28.2621 40.6565 29.0653C40.556 29.6853 40.3806 30.3022 40.2107 30.9093C39.9634 31.8178 38.7321 32.1314 38.087 31.4306C37.6091 30.9115 37.1475 30.3631 36.727 29.7864C36.3445 29.2563 35.8468 29.0959 35.225 29.16C34.5381 29.2265 33.8513 29.2929 33.1514 29.3139C32.4666 29.3305 32.0856 29.0051 31.8925 28.363C31.7692 27.9634 31.8045 27.7152 32.3173 27.8713L32.3422 27.8723Z" fill="#EC8D28"/>
<path d="M29.7605 15.5719C29.4637 16.1089 29.1863 16.6567 28.7484 17.1029C28.6025 17.2516 28.449 17.46 28.2029 17.3749C27.947 17.2844 27.9476 17.0298 27.9612 16.8207C28.121 15.0097 28.8883 13.4836 30.111 12.1711C30.2883 11.9886 30.536 11.7942 30.7845 11.9443C31.0188 12.0738 30.9717 12.3665 30.9321 12.5995C30.7187 13.6542 30.2787 14.6347 29.7508 15.5665L29.7605 15.5719Z" fill="#FEFEFE"/>
<path d="M27.2928 21.0272C27.201 21.1932 27.1524 21.281 27.1092 21.3591C27.0347 21.4709 26.9972 21.6541 26.8248 21.597C26.6719 21.5508 26.6542 21.3753 26.6594 21.2506C26.6824 20.3328 26.8983 19.458 27.3854 18.6692C27.4663 18.5228 27.5938 18.3383 27.7955 18.4116C27.9723 18.4838 27.9088 18.6909 27.8928 18.835C27.8002 19.6251 27.5894 20.3754 27.2928 21.0272Z" fill="#FEFDFC"/>
<path d="M41.1754 21.7166C40.733 21.0642 40.9439 20.3139 40.8481 19.6109C40.9553 19.5554 41.0442 19.5791 41.0791 19.7004C41.2614 20.362 41.3636 21.0304 41.1754 21.7166Z" fill="#ED9230"/>
<path d="M32.6008 21.9861C32.7642 22.3823 32.999 22.7416 33.0411 23.1727C32.7662 22.8168 32.4653 22.4848 32.6008 21.9861Z" fill="#F1A146"/>
<path d="M20.0382 47.4308C20.5973 46.3504 20.8139 46.3045 21.701 46.7057C23.304 47.4261 24.9296 48.0826 26.5488 48.7738C27.7851 49.3043 29.0117 49.8295 30.248 50.36C30.8271 50.6037 31.4052 50.8723 32.0005 51.0866C33.0133 51.4681 33.17 51.7842 32.7451 52.7602C32.5015 53.3393 32.2871 53.9347 32.0185 54.5127C31.7273 55.1548 31.3786 55.2552 30.7355 54.9889C28.3561 53.9667 25.9756 52.9694 23.5908 51.9569C22.3447 51.421 21.0835 50.8894 19.8438 50.3188C19.1627 50.006 19.0864 49.7981 19.3494 49.115C19.5907 48.4708 19.8668 47.8331 20.0328 47.4405L20.0382 47.4308Z" fill="#BFA6AB"/>
<path d="M16.6616 45.1691C16.5323 45.5183 16.1982 45.8689 15.9086 46.2314C15.7767 46.4008 15.5853 46.5626 15.3456 46.4428C15.1405 46.3295 15.0535 46.1411 15.0432 45.906C15.005 45.2603 15.7103 44.1461 16.3144 43.9064C16.5223 43.8301 16.7528 43.6899 16.9732 43.9137C17.1882 44.1473 17.1139 44.3739 16.979 44.618C16.8926 44.7742 16.8063 44.9304 16.6713 45.1745L16.6616 45.1691Z" fill="#BDA4A9"/>
<path d="M14.703 47.974C14.558 48.0978 14.5567 48.4922 14.3257 48.4027C14.0156 48.295 14.1883 47.9826 14.2387 47.73C14.3009 47.433 14.4022 47.1576 14.7075 47.0204C14.7789 46.9834 14.8786 46.9876 14.92 47.0742C15.0854 47.4206 14.8454 47.6703 14.7084 47.9642L14.703 47.974Z" fill="#BBA1A6"/>
<path d="M45.1382 14.0414C46.6212 14.4024 47.8814 14.9588 49.147 15.5056C49.7652 15.7708 50.3888 16.0263 51.0026 16.2764C51.6511 16.5329 52.3358 16.5163 53.0193 16.4098C51.9413 16.9993 50.8843 16.7209 49.8486 16.2886C48.2827 15.6395 46.7555 14.8973 45.1284 14.036L45.1382 14.0414Z" fill="#FEFBF6"/>
</g>
<defs>
<clipPath id="clip0_322_2470">
<rect width="45.7606" height="53.3799" fill="white" transform="translate(25.8263) rotate(28.9352)"/>
</clipPath>
</defs>
</svg>
